<svg width="24" height="24" viewBox="0 0 24 24" fill="none" xmlns="http://www.w3.org/2000/svg">
<path d="M4.47419 6.93103H20.2317C20.3649 6.93103 20.4747 7.0355 20.4814 7.16855L21.2223 21.9876C21.2295 22.1304 21.1156 22.2501 20.9726 22.2501H3.73324C3.59027 22.2501 3.47641 22.1304 3.48355 21.9876L4.2245 7.16855C4.23116 7.03549 4.34098 6.93103 4.47419 6.93103Z" stroke="#313133" stroke-width="1.5"/>
<path fill-rule="evenodd" clip-rule="evenodd" d="M16.2905 9.54479C16.31 9.14595 16.3191 8.72532 16.3191 8.28336C16.3191 6.11364 16.0818 4.44884 15.4807 3.35852C15.1992 2.84802 14.8475 2.4824 14.399 2.23264C13.9425 1.97846 13.2952 1.79431 12.3529 1.79431C11.4107 1.79431 10.7634 1.97846 10.3069 2.23264C9.8584 2.4824 9.50669 2.84802 9.22522 3.35852C8.62403 4.44884 8.38675 6.11364 8.38675 8.28336C8.38675 8.72477 8.38693 9.14452 8.39194 9.54479H6.89178C6.88675 9.1339 6.88675 8.71258 6.88675 8.28336C6.88675 3.87113 7.79778 0.294312 12.3529 0.294312C16.9081 0.294312 17.8191 3.87113 17.8191 8.28336C17.8191 8.71258 17.8112 9.1339 17.7925 9.54479H16.2905Z" fill="#313133"/>
</svg>
