<svg width="17" height="17" viewBox="0 0 17 17" fill="none" xmlns="http://www.w3.org/2000/svg">
<path d="M12.25 2H4.75C2.5 2 1 3.14706 1 5.82353V11.1765C1 13.8529 2.5 15 4.75 15H12.25C14.5 15 16 13.8529 16 11.1765V5.82353C16 3.14706 14.5 2 12.25 2ZM12.6025 6.65706L10.255 8.56882C9.76 8.97412 9.13 9.17294 8.5 9.17294C7.87 9.17294 7.2325 8.97412 6.745 8.56882L4.3975 6.65706C4.28275 6.55994 4.2093 6.42132 4.19253 6.27023C4.17575 6.11914 4.21695 5.96729 4.3075 5.84647C4.5025 5.60176 4.855 5.55588 5.095 5.75471L7.4425 7.66647C8.0125 8.13294 8.98 8.13294 9.55 7.66647L11.8975 5.75471C12.1375 5.55588 12.4975 5.59412 12.685 5.84647C12.88 6.09118 12.8425 6.45824 12.6025 6.65706Z" fill="#4B4C4D"/>
</svg>
