<svg width="17" height="17" viewBox="0 0 17 17" fill="none" xmlns="http://www.w3.org/2000/svg">
<path d="M13.3537 15.0276C13.2565 15.2376 13.1097 15.4316 12.9128 15.5955C12.716 15.7594 12.4952 15.8981 12.2387 16.0062C11.8056 16.1884 11.3836 16.2696 10.9584 16.2503C10.539 16.2336 10.1227 16.1335 9.7122 15.944C9.114 15.6679 8.53954 15.2329 7.99737 14.6359C7.4552 14.0389 6.95892 13.3428 6.5144 12.5503C6.06241 11.7402 5.67204 10.8977 5.34661 10.0298C5.02834 9.16249 4.77644 8.27265 4.59305 7.3679C4.41988 6.48123 4.34053 5.63787 4.36406 4.84906C4.39028 4.05442 4.54375 3.3539 4.82449 2.74751C5.00804 2.35101 5.25387 2.0045 5.55659 1.71962C5.862 1.42891 6.23602 1.20525 6.68181 1.05717C7.22721 0.863079 7.72142 0.871808 8.1554 1.07212C8.31961 1.14791 8.46763 1.25869 8.58185 1.39633C8.70194 1.53668 8.78824 1.70389 8.82362 1.90422L9.30153 4.43887C9.33961 4.63337 9.35377 4.80266 9.34717 4.9553C9.34326 5.10211 9.3159 5.23809 9.26461 5.34888C9.19983 5.48881 9.09399 5.6098 8.9498 5.70601C8.81147 5.80493 8.63526 5.89344 8.42973 5.96841L7.77076 6.22332C7.67656 6.25768 7.61214 6.31995 7.56896 6.41324C7.54736 6.45988 7.53433 6.50341 7.52446 6.55547C7.52046 6.61023 7.52186 6.65334 7.5174 6.69374C7.53388 6.93487 7.59961 7.26951 7.71729 7.69181C7.84084 8.11682 7.97927 8.55579 8.14117 9.00557C8.3148 9.46078 8.48749 9.88724 8.67685 10.2931C8.86304 10.6904 9.03424 10.9817 9.18505 11.1787C9.20897 11.2039 9.23606 11.2376 9.26902 11.2741C9.30784 11.3132 9.35206 11.3407 9.40484 11.3651C9.50454 11.4111 9.59697 11.4113 9.69118 11.3769L10.3393 11.1454C10.5534 11.0673 10.7455 11.0214 10.9128 11.0137C11.0854 10.9944 11.2392 11.0158 11.3858 11.0835C11.4973 11.1349 11.6038 11.2124 11.7085 11.3244C11.8132 11.4364 11.913 11.5745 12.0137 11.7413L13.3206 14.0075C13.4245 14.1828 13.4734 14.354 13.4704 14.5295C13.4616 14.7024 13.4293 14.8644 13.3537 15.0276Z" fill="#4B4C4D"/>
</svg>
