<svg width="24" height="24" viewBox="0 0 24 24" fill="none" xmlns="http://www.w3.org/2000/svg">
<path d="M21.7609 21.6486L17.0142 16.6757C18.562 15 19.5423 12.7297 19.5423 10.1892C19.5423 5.10811 15.6211 1 10.7712 1C5.92123 1 2 5.10811 2 10.1892C2 15.2703 5.92123 19.3784 10.7712 19.3784C12.6286 19.3784 14.3828 18.7297 15.8275 17.7027L20.6774 22.7838C20.8322 22.9459 21.0386 23 21.245 23C21.4514 23 21.6577 22.9459 21.8125 22.7838C22.0705 22.4594 22.0705 21.973 21.7609 21.6486ZM3.54785 10.1892C3.54785 6.02703 6.79835 2.62162 10.7712 2.62162C14.744 2.62162 17.9945 6.02703 17.9945 10.1892C17.9945 14.3513 14.744 17.7568 10.7712 17.7568C6.79835 17.7568 3.54785 14.3513 3.54785 10.1892Z" fill="#313133"/>
</svg>
